<svg version="1.1" id="Layer_1" xmlns="http://www.w3.org/2000/svg" xmlns:xlink="http://www.w3.org/1999/xlink" x="0px" y="0px"
	 width="100%" viewBox="0 0 64 64" enable-background="new 0 0 64 64" xml:space="preserve">
<path fill="#FFFFFF" opacity="1.000000" stroke="none" 
	d="
M65.000000,55.000000 
	C65.000000,58.246471 65.000000,61.492939 65.000000,65.000000 
	C62.330299,65.000000 59.656197,65.000000 56.776424,64.721970 
	C51.351414,59.613064 46.132072,54.782177 40.778698,49.827232 
	C29.860645,57.229759 13.597272,54.476574 4.980048,42.185398 
	C3.887064,40.626423 2.337847,39.387306 1.000000,38.000000 
	C1.000000,31.312355 1.000000,24.624710 1.302505,17.757952 
	C2.054518,17.137531 2.675771,16.777077 2.927390,16.242607 
	C5.976783,9.765319 10.282019,4.706554 17.551411,2.798733 
	C17.838522,2.723382 17.856579,1.622853 18.000000,1.000000 
	C23.688040,1.000000 29.376081,1.000000 35.242275,1.305282 
	C36.035805,2.085003 36.589989,2.687646 37.275616,3.014901 
	C50.266369,9.215477 56.260696,21.566347 51.708023,34.990189 
	C49.629784,41.118008 51.970913,43.862606 55.647564,47.177956 
	C57.377094,48.737526 58.877178,50.556396 60.641918,52.070492 
	C61.961246,53.202435 63.537918,54.034439 65.000000,55.000000 
M43.998039,28.294336 
	C44.230373,17.429737 33.999847,7.761713 22.324646,10.986582 
	C16.408541,12.620699 10.539813,19.196238 10.000871,25.147472 
	C9.312689,32.746677 13.277061,39.345772 20.662369,42.894600 
	C26.315435,45.611042 33.491577,44.469551 37.990810,39.320942 
	C40.535183,36.409340 42.013706,32.566322 43.998039,28.294336 
z"/>
<path fill="#000000" opacity="1.000000" stroke="none" 
	d="
M65.000000,54.531342 
	C63.537918,54.034439 61.961246,53.202435 60.641918,52.070492 
	C58.877178,50.556396 57.377094,48.737526 55.647564,47.177956 
	C51.970913,43.862606 49.629784,41.118008 51.708023,34.990189 
	C56.260696,21.566347 50.266369,9.215477 37.275616,3.014901 
	C36.589989,2.687646 36.035805,2.085003 35.710213,1.305282 
	C45.615421,1.000000 55.230846,1.000000 65.000000,1.000000 
	C65.000000,18.687302 65.000000,36.374992 65.000000,54.531342 
z"/>
<path fill="#000000" opacity="1.000000" stroke="none" 
	d="
M1.000000,38.468662 
	C2.337847,39.387306 3.887064,40.626423 4.980048,42.185398 
	C13.597272,54.476574 29.860645,57.229759 40.778698,49.827232 
	C46.132072,54.782177 51.351414,59.613064 56.285378,64.721970 
	C37.765041,65.000000 19.530081,65.000000 1.000000,65.000000 
	C1.000000,56.314663 1.000000,47.625996 1.000000,38.468662 
z"/>
<path fill="#000000" opacity="1.000000" stroke="none" 
	d="
M17.529547,1.000000 
	C17.856579,1.622853 17.838522,2.723382 17.551411,2.798733 
	C10.282019,4.706554 5.976783,9.765319 2.927390,16.242607 
	C2.675771,16.777077 2.054518,17.137531 1.302505,17.289419 
	C1.000000,11.739020 1.000000,6.478040 1.000000,1.000000 
	C6.351708,1.000000 11.705401,1.000000 17.529547,1.000000 
z"/>
<path fill="#000000" opacity="1.000000" stroke="none" 
	d="
M43.985176,28.718584 
	C42.013706,32.566322 40.535183,36.409340 37.990810,39.320942 
	C33.491577,44.469551 26.315435,45.611042 20.662369,42.894600 
	C13.277061,39.345772 9.312689,32.746677 10.000871,25.147472 
	C10.539813,19.196238 16.408541,12.620699 22.324646,10.986582 
	C33.999847,7.761713 44.230373,17.429737 43.985176,28.718584 
z"/>
</svg>